# xmcd CD database file
# Copyright (C) 1993-1998 Ti Kan
#
# Track frame offsets:
#	150
#	10632
#	30415
#	43000
#	58960
#	74265
#	85782
#	97342
#	106965
#	119415
#	136055
#	148755
#
# Disc length: 2148 seconds
#
# Revision: 1
# Processed by: cddbd v1.4b41PL1 Copyright (c) Steve Scherf et al.
# Submitted via: NotifyCDPlayer(CDDB) 1.51.3
#
DISCID=a408620c
DTITLE=New Coon Creek Girls - Our Point of View
DYEAR=1900
DGENRE=
TTITLE0=On Fire
TTITLE1=Danny Boy
TTITLE2=Who Knew
TTITLE3=Who Will Pray For Me
TTITLE4=One Of A Kind
TTITLE5=Sassafrass
TTITLE6=Muleskinner Blues (Blue Yodel No. 8)
TTITLE7=Heaven's The Way To Go
TTITLE8=These Old Blues
TTITLE9=Clinging To A Saving Hand
TTITLE10=Caught In The Middle
TTITLE11=Your Memory's Not Going Anywhere
EXTD=
EXTT0=
EXTT1=
EXTT2=
EXTT3=
EXTT4=
EXTT5=
EXTT6=
EXTT7=
EXTT8=
EXTT9=
EXTT10=
EXTT11=
PLAYORDER=
